<mxfile host="Electron" agent="Mozilla/5.0 (Windows NT 10.0; Win64; x64) AppleWebKit/537.36 (KHTML, like Gecko) draw.io/24.7.5 Chrome/126.0.6478.183 Electron/31.3.0 Safari/537.36" version="24.7.5">
  <diagram name="Страница — 1" id="OxOCBZZh-tYeO1LRG4tj">
    <mxGraphModel dx="548" dy="1527" grid="1" gridSize="10" guides="1" tooltips="1" connect="1" arrows="1" fold="1" page="1" pageScale="1" pageWidth="827" pageHeight="1169" math="0" shadow="0">
      <root>
        <mxCell id="0" />
        <mxCell id="1" parent="0" />
        <mxCell id="Bt5aDinGUWlxkMjQN304-140" value="" style="rounded=0;whiteSpace=wrap;html=1;dashed=1;dashPattern=1 4;" vertex="1" parent="1">
          <mxGeometry x="160" y="-440" width="2100" height="1540" as="geometry" />
        </mxCell>
        <mxCell id="Bt5aDinGUWlxkMjQN304-135" value="" style="whiteSpace=wrap;html=1;aspect=fixed;dashed=1;dashPattern=1 4;align=left;" vertex="1" parent="1">
          <mxGeometry x="257" y="-322.5" width="1382.5" height="1382.5" as="geometry" />
        </mxCell>
        <mxCell id="Bt5aDinGUWlxkMjQN304-89" value="" style="rounded=0;whiteSpace=wrap;html=1;fillColor=#b1ddf0;strokeColor=#10739e;" vertex="1" parent="1">
          <mxGeometry x="340" y="-262.5" width="1110" height="1290" as="geometry" />
        </mxCell>
        <mxCell id="Bt5aDinGUWlxkMjQN304-127" value="" style="group" vertex="1" connectable="0" parent="1">
          <mxGeometry x="1740" y="690" width="534" height="244" as="geometry" />
        </mxCell>
        <mxCell id="Bt5aDinGUWlxkMjQN304-130" value="" style="group" vertex="1" connectable="0" parent="Bt5aDinGUWlxkMjQN304-127">
          <mxGeometry x="20" y="-40" width="514" height="244" as="geometry" />
        </mxCell>
        <mxCell id="Bt5aDinGUWlxkMjQN304-131" value="" style="rounded=1;whiteSpace=wrap;html=1;arcSize=5;fillColor=#fff2cc;strokeColor=#d6b656;" vertex="1" parent="Bt5aDinGUWlxkMjQN304-130">
          <mxGeometry width="514" height="244" as="geometry" />
        </mxCell>
        <mxCell id="Bt5aDinGUWlxkMjQN304-132" value="&lt;span style=&quot;background-color: rgb(255, 255, 204);&quot;&gt;TurboPay&lt;/span&gt;" style="text;html=1;align=center;verticalAlign=middle;whiteSpace=wrap;rounded=1;shadow=0;fontSize=23;fontStyle=1" vertex="1" parent="Bt5aDinGUWlxkMjQN304-130">
          <mxGeometry width="150" height="49" as="geometry" />
        </mxCell>
        <mxCell id="Bt5aDinGUWlxkMjQN304-128" value="" style="rounded=1;whiteSpace=wrap;html=1;arcSize=5;fillColor=#fff2cc;strokeColor=#d6b656;" vertex="1" parent="Bt5aDinGUWlxkMjQN304-127">
          <mxGeometry width="514" height="244" as="geometry" />
        </mxCell>
        <mxCell id="Bt5aDinGUWlxkMjQN304-129" value="&lt;span style=&quot;background-color: rgb(255, 229, 153);&quot;&gt;FastMoney&lt;/span&gt;" style="text;html=1;align=center;verticalAlign=middle;whiteSpace=wrap;rounded=1;shadow=0;fontSize=23;fontStyle=1" vertex="1" parent="Bt5aDinGUWlxkMjQN304-127">
          <mxGeometry width="150" height="49" as="geometry" />
        </mxCell>
        <mxCell id="Bt5aDinGUWlxkMjQN304-37" value="" style="rounded=0;whiteSpace=wrap;html=1;dashed=1;dashPattern=12 12;" vertex="1" parent="1">
          <mxGeometry x="1705.5" y="162" width="130" height="115" as="geometry" />
        </mxCell>
        <mxCell id="Bt5aDinGUWlxkMjQN304-1" value="&lt;span style=&quot;background-color: rgb(255, 255, 255);&quot;&gt;Специалист&amp;nbsp;&lt;/span&gt;&lt;div&gt;&lt;span style=&quot;background-color: rgb(255, 255, 255);&quot;&gt;поддержки&lt;/span&gt;&lt;/div&gt;" style="shape=umlActor;verticalLabelPosition=bottom;verticalAlign=top;html=1;outlineConnect=0;" vertex="1" parent="1">
          <mxGeometry x="287.5" y="172.5" width="19" height="35" as="geometry" />
        </mxCell>
        <mxCell id="Bt5aDinGUWlxkMjQN304-4" value="" style="endArrow=classic;startArrow=classic;html=1;rounded=0;exitX=0;exitY=0.5;exitDx=0;exitDy=0;entryX=0;entryY=0.25;entryDx=0;entryDy=0;" edge="1" parent="1" source="Bt5aDinGUWlxkMjQN304-60" target="Bt5aDinGUWlxkMjQN304-16">
          <mxGeometry width="50" height="50" relative="1" as="geometry">
            <mxPoint x="610.16" y="-49" as="sourcePoint" />
            <mxPoint x="669.5" y="-15" as="targetPoint" />
            <Array as="points">
              <mxPoint x="597.5" y="-57" />
              <mxPoint x="642.5" y="-57" />
            </Array>
          </mxGeometry>
        </mxCell>
        <mxCell id="Bt5aDinGUWlxkMjQN304-59" value="ИВ6" style="edgeLabel;html=1;align=center;verticalAlign=middle;resizable=0;points=[];" vertex="1" connectable="0" parent="Bt5aDinGUWlxkMjQN304-4">
          <mxGeometry x="0.026" y="6" relative="1" as="geometry">
            <mxPoint x="58" y="-7" as="offset" />
          </mxGeometry>
        </mxCell>
        <mxCell id="Bt5aDinGUWlxkMjQN304-10" value="&lt;span style=&quot;background-color: rgb(255, 255, 255);&quot;&gt;Администратор&lt;/span&gt;" style="shape=umlActor;verticalLabelPosition=bottom;verticalAlign=top;html=1;outlineConnect=0;" vertex="1" parent="1">
          <mxGeometry x="297.5" y="535" width="19" height="40" as="geometry" />
        </mxCell>
        <mxCell id="Bt5aDinGUWlxkMjQN304-16" value="&lt;br&gt;&lt;div style=&quot;forced-color-adjust: none; color: rgb(0, 0, 0); font-family: Helvetica; font-size: 12px; font-style: normal; font-variant-ligatures: normal; font-variant-caps: normal; font-weight: 400; letter-spacing: normal; orphans: 2; text-indent: 0px; text-transform: none; widows: 2; word-spacing: 0px; -webkit-text-stroke-width: 0px; white-space: normal; background-color: rgb(251, 251, 251); text-decoration-thickness: initial; text-decoration-style: initial; text-decoration-color: initial; text-align: center;&quot;&gt;&lt;span style=&quot;forced-color-adjust: none; background-color: initial;&quot;&gt;&lt;b style=&quot;forced-color-adjust: none;&quot;&gt;SupportRequest&lt;/b&gt;&lt;/span&gt;&lt;/div&gt;&lt;div style=&quot;forced-color-adjust: none; font-family: Helvetica; font-size: 12px; font-variant-ligatures: normal; font-variant-caps: normal; letter-spacing: normal; orphans: 2; text-align: left; text-indent: 0px; text-transform: none; widows: 2; word-spacing: 0px; -webkit-text-stroke-width: 0px; white-space: normal; background-color: rgb(251, 251, 251); text-decoration-thickness: initial; text-decoration-style: initial; text-decoration-color: initial;&quot;&gt;&lt;div style=&quot;forced-color-adjust: none;&quot;&gt;&lt;ul style=&quot;forced-color-adjust: none;&quot;&gt;&lt;li style=&quot;forced-color-adjust: none;&quot;&gt;Create&lt;/li&gt;&lt;li style=&quot;forced-color-adjust: none;&quot;&gt;Save&lt;/li&gt;&lt;li style=&quot;forced-color-adjust: none;&quot;&gt;ChangeStarusRequest&lt;/li&gt;&lt;li style=&quot;forced-color-adjust: none;&quot;&gt;GetRequest&lt;/li&gt;&lt;li style=&quot;forced-color-adjust: none;&quot;&gt;GetRequests&lt;/li&gt;&lt;/ul&gt;&lt;/div&gt;&lt;/div&gt;" style="rounded=1;whiteSpace=wrap;html=1;" vertex="1" parent="1">
          <mxGeometry x="862.5" y="-90" width="180" height="130" as="geometry" />
        </mxCell>
        <mxCell id="Bt5aDinGUWlxkMjQN304-19" value="&lt;div style=&quot;text-align: center;&quot;&gt;&lt;b&gt;Auction&lt;/b&gt;&lt;/div&gt;&lt;div style=&quot;&quot;&gt;&lt;ul&gt;&lt;li style=&quot;&quot;&gt;Create&lt;/li&gt;&lt;li style=&quot;&quot;&gt;Delete&lt;/li&gt;&lt;li&gt;Save&lt;/li&gt;&lt;li&gt;GetAuction&lt;/li&gt;&lt;li&gt;GetAuctions&lt;/li&gt;&lt;li&gt;&lt;span style=&quot;white-space-collapse: preserve;&quot;&gt;CreateRequestOnAuction&lt;/span&gt;&lt;br&gt;&lt;/li&gt;&lt;li&gt;UpdateBids&lt;/li&gt;&lt;li&gt;NotificationP&lt;span style=&quot;white-space-collapse: preserve;&quot; data-src-align=&quot;0:8&quot; class=&quot;EzKURWReUAB5oZgtQNkl&quot;&gt;articipant&lt;/span&gt;&lt;/li&gt;&lt;li&gt;ProcessNewRequest&lt;br&gt;&lt;/li&gt;&lt;li&gt;UpdateStatus&lt;/li&gt;&lt;/ul&gt;&lt;/div&gt;" style="rounded=1;whiteSpace=wrap;html=1;align=left;" vertex="1" parent="1">
          <mxGeometry x="882.5" y="410" width="192.5" height="190" as="geometry" />
        </mxCell>
        <mxCell id="Bt5aDinGUWlxkMjQN304-21" value="&lt;div style=&quot;&quot;&gt;&lt;b style=&quot;background-color: initial;&quot;&gt;Order&lt;/b&gt;&lt;/div&gt;&lt;span style=&quot;background-color: initial;&quot;&gt;&lt;div style=&quot;text-align: left;&quot;&gt;&lt;ul&gt;&lt;li&gt;&lt;span style=&quot;background-color: initial;&quot;&gt;Create&lt;/span&gt;&lt;/li&gt;&lt;li&gt;&lt;span style=&quot;background-color: initial;&quot;&gt;Delete&lt;/span&gt;&lt;/li&gt;&lt;li&gt;Save&lt;/li&gt;&lt;li&gt;&lt;span style=&quot;background-color: initial;&quot;&gt;Approve&lt;/span&gt;&lt;/li&gt;&lt;li&gt;&lt;span style=&quot;background-color: initial;&quot;&gt;GetOrders&lt;/span&gt;&lt;/li&gt;&lt;li&gt;&lt;span style=&quot;background-color: initial;&quot;&gt;GetOrder&lt;/span&gt;&lt;/li&gt;&lt;li&gt;&lt;span style=&quot;background-color: initial;&quot;&gt;ChangingOrderNotification&lt;/span&gt;&lt;/li&gt;&lt;li&gt;&lt;span style=&quot;background-color: initial;&quot;&gt;OrderStatistics&lt;/span&gt;&lt;/li&gt;&lt;/ul&gt;&lt;/div&gt;&lt;/span&gt;" style="rounded=1;whiteSpace=wrap;html=1;" vertex="1" parent="1">
          <mxGeometry x="864.5" y="77" width="200" height="160" as="geometry" />
        </mxCell>
        <mxCell id="Bt5aDinGUWlxkMjQN304-23" value="&lt;b&gt;Service&lt;/b&gt;&lt;br&gt;&lt;div&gt;&lt;div style=&quot;text-align: left;&quot;&gt;&lt;ul&gt;&lt;li&gt;&lt;span style=&quot;background-color: initial;&quot;&gt;Create&lt;/span&gt;&lt;/li&gt;&lt;li&gt;&lt;span style=&quot;background-color: initial;&quot;&gt;Delete&lt;/span&gt;&lt;/li&gt;&lt;li&gt;&lt;span style=&quot;background-color: initial;&quot;&gt;Save&lt;/span&gt;&lt;/li&gt;&lt;li&gt;&lt;span style=&quot;background-color: initial;&quot;&gt;GetService&lt;/span&gt;&lt;/li&gt;&lt;li&gt;&lt;span style=&quot;background-color: initial;&quot;&gt;GetServices&lt;/span&gt;&lt;/li&gt;&lt;/ul&gt;&lt;/div&gt;&lt;/div&gt;" style="rounded=1;whiteSpace=wrap;html=1;" vertex="1" parent="1">
          <mxGeometry x="880" y="260" width="190" height="120" as="geometry" />
        </mxCell>
        <mxCell id="Bt5aDinGUWlxkMjQN304-25" value="&lt;span style=&quot;white-space-collapse: preserve;&quot; data-src-align=&quot;0:14&quot; class=&quot;EzKURWReUAB5oZgtQNkl&quot;&gt;&lt;b&gt;Reports&lt;/b&gt;&lt;/span&gt;&lt;div&gt;&lt;ul&gt;&lt;li style=&quot;text-align: left;&quot;&gt;&lt;span style=&quot;white-space-collapse: preserve;&quot; data-src-align=&quot;23:8&quot; class=&quot;EzKURWReUAB5oZgtQNkl&quot;&gt;SalesR&lt;/span&gt;&lt;span style=&quot;white-space-collapse: preserve;&quot; data-src-align=&quot;14:5&quot; class=&quot;EzKURWReUAB5oZgtQNkl&quot;&gt;eport&lt;/span&gt;&lt;/li&gt;&lt;li style=&quot;text-align: left;&quot;&gt;&lt;span style=&quot;white-space-collapse: preserve;&quot; data-src-align=&quot;14:5&quot; class=&quot;EzKURWReUAB5oZgtQNkl&quot;&gt;UserActivityReport&lt;/span&gt;&lt;/li&gt;&lt;/ul&gt;&lt;/div&gt;" style="rounded=1;whiteSpace=wrap;html=1;" vertex="1" parent="1">
          <mxGeometry x="677.5" y="40" width="150" height="117" as="geometry" />
        </mxCell>
        <mxCell id="Bt5aDinGUWlxkMjQN304-26" value="&lt;b&gt;Client&lt;/b&gt;&lt;br&gt;&lt;div&gt;&lt;div style=&quot;text-align: left;&quot;&gt;&lt;ul&gt;&lt;li&gt;&lt;span style=&quot;background-color: initial;&quot;&gt;Registration&lt;/span&gt;&lt;/li&gt;&lt;li&gt;&lt;span style=&quot;background-color: initial;&quot;&gt;GetProfile&lt;/span&gt;&lt;/li&gt;&lt;li&gt;&lt;span style=&quot;background-color: initial;&quot;&gt;Save&lt;/span&gt;&lt;/li&gt;&lt;li&gt;&lt;span style=&quot;background-color: initial;&quot;&gt;Notification&lt;/span&gt;&lt;/li&gt;&lt;li&gt;&lt;span style=&quot;background-color: initial;&quot;&gt;SetRoles&lt;/span&gt;&lt;/li&gt;&lt;li&gt;GetClients&lt;/li&gt;&lt;/ul&gt;&lt;/div&gt;&lt;/div&gt;" style="rounded=1;whiteSpace=wrap;html=1;" vertex="1" parent="1">
          <mxGeometry x="875.5" y="-242.5" width="130" height="130" as="geometry" />
        </mxCell>
        <mxCell id="Bt5aDinGUWlxkMjQN304-28" value="&lt;span style=&quot;white-space-collapse: preserve;&quot; data-src-align=&quot;0:6&quot; class=&quot;EzKURWReUAB5oZgtQNkl&quot;&gt;&lt;b&gt;AppealApplication&lt;/b&gt;&lt;/span&gt;&lt;div style=&quot;&quot;&gt;&lt;ul&gt;&lt;li style=&quot;text-align: left;&quot;&gt;&lt;span style=&quot;white-space-collapse: preserve;&quot; data-src-align=&quot;0:6&quot; class=&quot;EzKURWReUAB5oZgtQNkl&quot;&gt;Create&lt;/span&gt;&lt;/li&gt;&lt;li style=&quot;text-align: left;&quot;&gt;&lt;span style=&quot;white-space-collapse: preserve;&quot; data-src-align=&quot;0:6&quot; class=&quot;EzKURWReUAB5oZgtQNkl&quot;&gt;Delete&lt;/span&gt;&lt;/li&gt;&lt;li style=&quot;text-align: left;&quot;&gt;&lt;span style=&quot;white-space-collapse: preserve;&quot; data-src-align=&quot;0:6&quot; class=&quot;EzKURWReUAB5oZgtQNkl&quot;&gt;Save&lt;/span&gt;&lt;/li&gt;&lt;li style=&quot;text-align: left;&quot;&gt;GetApplication&lt;/li&gt;&lt;li style=&quot;text-align: left;&quot;&gt;GetApplications&lt;/li&gt;&lt;li style=&quot;text-align: left;&quot;&gt;&lt;span style=&quot;white-space-collapse: preserve;&quot; data-src-align=&quot;0:6&quot; class=&quot;EzKURWReUAB5oZgtQNkl&quot;&gt;UpdateStatus&lt;/span&gt;&lt;/li&gt;&lt;/ul&gt;&lt;/div&gt;" style="rounded=1;whiteSpace=wrap;html=1;" vertex="1" parent="1">
          <mxGeometry x="870" y="630" width="199.5" height="140" as="geometry" />
        </mxCell>
        <mxCell id="Bt5aDinGUWlxkMjQN304-29" value="&lt;b&gt;&lt;span style=&quot;white-space-collapse: preserve;&quot; data-src-align=&quot;0:9&quot; class=&quot;EzKURWReUAB5oZgtQNkl&quot;&gt;PaymentT&lt;/span&gt;&lt;span style=&quot;white-space-collapse: preserve;&quot; data-src-align=&quot;10:8&quot; class=&quot;EzKURWReUAB5oZgtQNkl&quot;&gt;ransaction&lt;/span&gt;&lt;/b&gt;&lt;div style=&quot;text-align: left;&quot;&gt;&lt;ul&gt;&lt;li&gt;&lt;span style=&quot;white-space-collapse: preserve;&quot; data-src-align=&quot;10:8&quot; class=&quot;EzKURWReUAB5oZgtQNkl&quot;&gt;Initiate&lt;/span&gt;&lt;/li&gt;&lt;li&gt;&lt;span style=&quot;white-space-collapse: preserve;&quot; data-src-align=&quot;10:8&quot; class=&quot;EzKURWReUAB5oZgtQNkl&quot;&gt;Confirm&lt;/span&gt;&lt;/li&gt;&lt;li&gt;&lt;span style=&quot;white-space-collapse: preserve;&quot; data-src-align=&quot;10:8&quot; class=&quot;EzKURWReUAB5oZgtQNkl&quot;&gt;&lt;span data-src-align=&quot;0:4&quot; class=&quot;EzKURWReUAB5oZgtQNkl&quot;&gt;AccountingTransaction&lt;/span&gt;&lt;/span&gt;&lt;/li&gt;&lt;li&gt;&lt;span style=&quot;white-space-collapse: preserve;&quot;&gt;GetStatus&lt;/span&gt;&lt;/li&gt;&lt;li&gt;&lt;span style=&quot;white-space-collapse: preserve;&quot; data-src-align=&quot;10:8&quot; class=&quot;EzKURWReUAB5oZgtQNkl&quot;&gt;&lt;span data-src-align=&quot;0:12&quot; class=&quot;EzKURWReUAB5oZgtQNkl&quot;&gt;&lt;span data-src-align=&quot;0:12&quot; class=&quot;EzKURWReUAB5oZgtQNkl&quot;&gt;ConfirmC&lt;/span&gt;&lt;span data-src-align=&quot;13:6&quot; class=&quot;EzKURWReUAB5oZgtQNkl&quot;&gt;ancellation&lt;/span&gt;&lt;/span&gt;&lt;/span&gt;&lt;/li&gt;&lt;li&gt;&lt;span style=&quot;white-space-collapse: preserve;&quot; data-src-align=&quot;10:8&quot; class=&quot;EzKURWReUAB5oZgtQNkl&quot;&gt;&lt;span data-src-align=&quot;0:12&quot; class=&quot;EzKURWReUAB5oZgtQNkl&quot;&gt;GetPaymentTransaction&lt;/span&gt;&lt;/span&gt;&lt;/li&gt;&lt;li&gt;&lt;span style=&quot;white-space-collapse: preserve;&quot; data-src-align=&quot;10:8&quot; class=&quot;EzKURWReUAB5oZgtQNkl&quot;&gt;GetPaymentTransactions&lt;/span&gt;&lt;/li&gt;&lt;/ul&gt;&lt;/div&gt;" style="rounded=1;whiteSpace=wrap;html=1;" vertex="1" parent="1">
          <mxGeometry x="882.5" y="819" width="187" height="151" as="geometry" />
        </mxCell>
        <mxCell id="Bt5aDinGUWlxkMjQN304-30" value="Клиент" style="shape=umlActor;verticalLabelPosition=bottom;verticalAlign=top;html=1;outlineConnect=0;" vertex="1" parent="1">
          <mxGeometry x="1795.5" y="177" width="30" height="60" as="geometry" />
        </mxCell>
        <mxCell id="Bt5aDinGUWlxkMjQN304-34" value="&lt;span style=&quot;white-space-collapse: preserve;&quot; data-src-align=&quot;0:11&quot; class=&quot;EzKURWReUAB5oZgtQNkl&quot;&gt;&lt;b&gt;Authorizations&lt;/b&gt;&lt;/span&gt;" style="rounded=1;whiteSpace=wrap;html=1;" vertex="1" parent="1">
          <mxGeometry x="407.5" y="-270" width="180" height="40" as="geometry" />
        </mxCell>
        <mxCell id="Bt5aDinGUWlxkMjQN304-35" value="&lt;div style=&quot;&quot;&gt;&lt;span style=&quot;background-color: initial;&quot;&gt;&lt;b&gt;BFF Client&lt;/b&gt;&lt;/span&gt;&lt;/div&gt;&lt;div style=&quot;&quot;&gt;&lt;b&gt;&lt;br&gt;&lt;/b&gt;&lt;div style=&quot;text-align: left;&quot;&gt;&lt;span style=&quot;background-color: initial;&quot;&gt;Registration&lt;/span&gt;&lt;/div&gt;&lt;div style=&quot;text-align: left;&quot;&gt;&lt;span style=&quot;background-color: initial;&quot;&gt;GetProfile&lt;/span&gt;&lt;/div&gt;&lt;div style=&quot;text-align: left;&quot;&gt;&lt;span style=&quot;background-color: initial;&quot;&gt;SaveProfile&lt;/span&gt;&lt;/div&gt;&lt;div style=&quot;text-align: left;&quot;&gt;&lt;span style=&quot;background-color: initial;&quot;&gt;&lt;br&gt;&lt;/span&gt;&lt;/div&gt;&lt;div style=&quot;text-align: left;&quot;&gt;CreateOrder&lt;/div&gt;&lt;div style=&quot;text-align: left;&quot;&gt;GetOrder&lt;/div&gt;&lt;div style=&quot;text-align: left;&quot;&gt;GetOrders&lt;/div&gt;&lt;div style=&quot;text-align: left;&quot;&gt;SaveOrder&lt;/div&gt;&lt;div style=&quot;text-align: left;&quot;&gt;DeleteOrder&lt;/div&gt;&lt;div style=&quot;text-align: left;&quot;&gt;ApproveOrder&lt;/div&gt;&lt;div style=&quot;text-align: left;&quot;&gt;&lt;br&gt;&lt;/div&gt;&lt;div style=&quot;text-align: left;&quot;&gt;CreateService&lt;/div&gt;&lt;div style=&quot;text-align: left;&quot;&gt;GetService&lt;/div&gt;&lt;div style=&quot;text-align: left;&quot;&gt;GetServices&lt;/div&gt;&lt;div style=&quot;text-align: left;&quot;&gt;SaveService&lt;/div&gt;&lt;div style=&quot;text-align: left;&quot;&gt;DeleteService&lt;/div&gt;&lt;div style=&quot;text-align: left;&quot;&gt;&lt;br&gt;&lt;/div&gt;&lt;div style=&quot;text-align: left;&quot;&gt;CreateAuction&lt;/div&gt;&lt;span style=&quot;background-color: initial;&quot;&gt;&lt;div style=&quot;text-align: left;&quot;&gt;&lt;span style=&quot;background-color: initial;&quot;&gt;GetAuction&lt;/span&gt;&lt;/div&gt;&lt;/span&gt;&lt;span style=&quot;background-color: initial;&quot;&gt;&lt;div style=&quot;text-align: left;&quot;&gt;&lt;span style=&quot;background-color: initial;&quot;&gt;GetAuctions&lt;/span&gt;&lt;/div&gt;&lt;div style=&quot;text-align: left;&quot;&gt;&lt;span style=&quot;background-color: initial;&quot;&gt;SaveAuction&lt;/span&gt;&lt;/div&gt;&lt;div style=&quot;text-align: left;&quot;&gt;&lt;span style=&quot;background-color: initial;&quot;&gt;DeleteAuction&lt;/span&gt;&lt;/div&gt;&lt;/span&gt;&lt;div style=&quot;text-align: left;&quot;&gt;&lt;span style=&quot;white-space-collapse: preserve; background-color: initial;&quot;&gt;CreateRequestOnAuction&lt;/span&gt;&lt;br&gt;&lt;/div&gt;&lt;div style=&quot;text-align: left;&quot;&gt;&lt;span style=&quot;white-space-collapse: preserve; background-color: initial;&quot;&gt;&lt;br&gt;&lt;/span&gt;&lt;/div&gt;&lt;div style=&quot;&quot;&gt;&lt;div style=&quot;text-align: left;&quot;&gt;&lt;span style=&quot;background-color: initial;&quot;&gt;GetSupportRequest&lt;/span&gt;&lt;/div&gt;&lt;span style=&quot;background-color: initial;&quot;&gt;&lt;div style=&quot;text-align: left;&quot;&gt;&lt;span style=&quot;background-color: initial;&quot;&gt;GetSupportRequests&lt;/span&gt;&lt;/div&gt;&lt;div style=&quot;text-align: left;&quot;&gt;&lt;br&gt;&lt;/div&gt;&lt;/span&gt;&lt;/div&gt;&lt;/div&gt;&lt;div style=&quot;text-align: left;&quot;&gt;&lt;span style=&quot;background-color: initial; white-space-collapse: preserve;&quot;&gt;Authentication&lt;/span&gt;&lt;/div&gt;&lt;div style=&quot;text-align: left;&quot;&gt;&lt;span style=&quot;text-align: center; white-space-collapse: preserve;&quot;&gt;Authorizations&lt;/span&gt;&lt;span style=&quot;white-space-collapse: preserve;&quot;&gt;&lt;br&gt;&lt;/span&gt;&lt;span style=&quot;background-color: initial; white-space-collapse: preserve;&quot; data-src-align=&quot;17:12&quot; class=&quot;EzKURWReUAB5oZgtQNkl&quot;&gt;Security&lt;/span&gt;&lt;span style=&quot;background-color: initial; white-space-collapse: preserve;&quot;&gt;T&lt;/span&gt;&lt;span style=&quot;background-color: initial; white-space-collapse: preserve;&quot; data-src-align=&quot;10:6&quot; class=&quot;EzKURWReUAB5oZgtQNkl&quot;&gt;oken&lt;/span&gt;&lt;span style=&quot;background-color: initial; white-space-collapse: preserve;&quot;&gt;Validation&lt;/span&gt;&lt;br&gt;&lt;/div&gt;&lt;div style=&quot;text-align: left;&quot;&gt;&lt;br&gt;&lt;/div&gt;&lt;div style=&quot;text-align: left;&quot;&gt;&lt;div&gt;&lt;span style=&quot;background-color: initial; white-space-collapse: preserve;&quot;&gt;Create&lt;/span&gt;Application&lt;br&gt;&lt;span style=&quot;background-color: initial; white-space-collapse: preserve;&quot;&gt;Delete&lt;/span&gt;Application&lt;br&gt;&lt;span style=&quot;background-color: initial; white-space-collapse: preserve;&quot;&gt;Save&lt;/span&gt;Application&lt;br&gt;&lt;span style=&quot;background-color: initial;&quot;&gt;GetApplication&lt;/span&gt;&lt;br&gt;&lt;span style=&quot;background-color: initial;&quot;&gt;GetApplications&lt;/span&gt;&lt;br&gt;&lt;span style=&quot;background-color: initial; white-space-collapse: preserve;&quot;&gt;UpdateStatus&lt;/span&gt;&lt;/div&gt;&lt;div&gt;&lt;span style=&quot;text-align: center; background-color: initial;&quot;&gt;&lt;div style=&quot;white-space-collapse: preserve; text-align: left;&quot;&gt;&lt;br&gt;&lt;/div&gt;&lt;div style=&quot;text-align: left;&quot;&gt;&lt;span style=&quot;white-space-collapse: preserve; background-color: initial;&quot;&gt;Initiate&lt;/span&gt;&lt;span style=&quot;white-space-collapse: preserve;&quot;&gt;Transaction&lt;/span&gt;&lt;br&gt;&lt;span style=&quot;white-space-collapse: preserve; background-color: initial;&quot;&gt;Confirm&lt;/span&gt;&lt;span style=&quot;white-space-collapse: preserve;&quot;&gt;Transaction&lt;/span&gt;&lt;br&gt;&lt;span style=&quot;white-space-collapse: preserve; background-color: initial;&quot;&gt;GetStatus&lt;/span&gt;&lt;span style=&quot;white-space-collapse: preserve;&quot;&gt;Transaction&lt;/span&gt;&lt;br&gt;&lt;span style=&quot;white-space-collapse: preserve; background-color: initial;&quot; data-src-align=&quot;0:12&quot; class=&quot;EzKURWReUAB5oZgtQNkl&quot;&gt;ConfirmC&lt;/span&gt;&lt;span style=&quot;white-space-collapse: preserve; background-color: initial;&quot; data-src-align=&quot;13:6&quot; class=&quot;EzKURWReUAB5oZgtQNkl&quot;&gt;ancellation&lt;/span&gt;&lt;span style=&quot;white-space-collapse: preserve;&quot;&gt;Transaction&lt;/span&gt;&lt;br&gt;&lt;span style=&quot;white-space-collapse: preserve; background-color: initial;&quot;&gt;GetPaymentTransaction&lt;/span&gt;&lt;br&gt;&lt;span style=&quot;white-space-collapse: preserve; background-color: initial;&quot;&gt;GetPaymentTransactions&lt;/span&gt;&lt;/div&gt;&lt;/span&gt;&lt;/div&gt;&lt;/div&gt;" style="rounded=1;whiteSpace=wrap;html=1;" vertex="1" parent="1">
          <mxGeometry x="1152.5" y="-130" width="187.5" height="700" as="geometry" />
        </mxCell>
        <mxCell id="Bt5aDinGUWlxkMjQN304-36" value="Браузер" style="rounded=0;whiteSpace=wrap;html=1;" vertex="1" parent="1">
          <mxGeometry x="1715.5" y="177" width="60" height="80" as="geometry" />
        </mxCell>
        <mxCell id="Bt5aDinGUWlxkMjQN304-38" value="" style="endArrow=classic;startArrow=classic;html=1;rounded=0;entryX=1;entryY=0.5;entryDx=0;entryDy=0;" edge="1" parent="1" source="Bt5aDinGUWlxkMjQN304-35" target="Bt5aDinGUWlxkMjQN304-26">
          <mxGeometry width="50" height="50" relative="1" as="geometry">
            <mxPoint x="1212.5" y="-90" as="sourcePoint" />
            <mxPoint x="1022.5" y="10" as="targetPoint" />
            <Array as="points">
              <mxPoint x="1230" y="-180" />
            </Array>
          </mxGeometry>
        </mxCell>
        <mxCell id="Bt5aDinGUWlxkMjQN304-74" value="ИВ 1" style="edgeLabel;html=1;align=center;verticalAlign=middle;resizable=0;points=[];" vertex="1" connectable="0" parent="Bt5aDinGUWlxkMjQN304-38">
          <mxGeometry x="0.4635" y="-1" relative="1" as="geometry">
            <mxPoint x="8" y="-11" as="offset" />
          </mxGeometry>
        </mxCell>
        <mxCell id="Bt5aDinGUWlxkMjQN304-39" value="&lt;div style=&quot;&quot;&gt;&lt;b&gt;ИВ1&lt;/b&gt;&lt;/div&gt;&lt;div style=&quot;&quot;&gt;&lt;span style=&quot;background-color: initial;&quot;&gt;Registration&lt;/span&gt;&lt;/div&gt;&lt;span style=&quot;background-color: initial;&quot;&gt;&lt;div style=&quot;&quot;&gt;&lt;span style=&quot;background-color: initial;&quot;&gt;GetProfile&lt;/span&gt;&lt;/div&gt;&lt;div style=&quot;&quot;&gt;SaveProfile&lt;/div&gt;&lt;div style=&quot;&quot;&gt;&lt;br&gt;&lt;/div&gt;&lt;div style=&quot;&quot;&gt;&lt;b&gt;ИВ2&lt;/b&gt;&lt;/div&gt;&lt;div style=&quot;&quot;&gt;&lt;div&gt;CreateOrder&lt;/div&gt;&lt;div&gt;GetOrder&lt;/div&gt;&lt;div&gt;GetOrders&lt;/div&gt;&lt;div&gt;SaveOrder&lt;/div&gt;&lt;div&gt;DeleteOrder&lt;/div&gt;&lt;div&gt;ApproveOrder&lt;/div&gt;&lt;div&gt;&lt;/div&gt;&lt;div&gt;&lt;br&gt;&lt;/div&gt;&lt;div style=&quot;&quot;&gt;&lt;b&gt;ИВ3&lt;/b&gt;&lt;/div&gt;&lt;div&gt;&lt;div&gt;CreateService&lt;/div&gt;&lt;div&gt;GetService&lt;/div&gt;&lt;div&gt;GetServices&lt;/div&gt;&lt;div&gt;SaveService&lt;/div&gt;&lt;div&gt;DeleteService&lt;/div&gt;&lt;/div&gt;&lt;div&gt;&lt;br&gt;&lt;/div&gt;&lt;div style=&quot;&quot;&gt;&lt;b&gt;ИВ4&lt;/b&gt;&lt;/div&gt;&lt;div&gt;&lt;div style=&quot;&quot;&gt;CreateAuction&lt;/div&gt;&lt;span style=&quot;text-align: center; background-color: initial;&quot;&gt;&lt;div style=&quot;text-align: left;&quot;&gt;&lt;span style=&quot;background-color: initial;&quot;&gt;GetAuction&lt;/span&gt;&lt;/div&gt;&lt;/span&gt;&lt;span style=&quot;text-align: center; background-color: initial;&quot;&gt;&lt;div style=&quot;text-align: left;&quot;&gt;&lt;span style=&quot;background-color: initial;&quot;&gt;GetAuctions&lt;/span&gt;&lt;/div&gt;&lt;div style=&quot;text-align: left;&quot;&gt;&lt;span style=&quot;background-color: initial;&quot;&gt;SaveAuction&lt;/span&gt;&lt;/div&gt;&lt;div style=&quot;text-align: left;&quot;&gt;&lt;span style=&quot;background-color: initial;&quot;&gt;DeleteAuction&lt;/span&gt;&lt;/div&gt;&lt;/span&gt;&lt;div&gt;&lt;span style=&quot;white-space-collapse: preserve; background-color: initial;&quot;&gt;CreateRequestOnAuction&lt;/span&gt;&lt;/div&gt;&lt;/div&gt;&lt;div&gt;&lt;span style=&quot;white-space-collapse: preserve; background-color: initial;&quot;&gt;&lt;br&gt;&lt;/span&gt;&lt;/div&gt;&lt;div&gt;&lt;span style=&quot;font-size: 11px; text-align: center; text-wrap: nowrap; background-color: rgb(255, 255, 255);&quot;&gt;&lt;b&gt;ИВ5&lt;/b&gt;&lt;/span&gt;&lt;span style=&quot;white-space-collapse: preserve; background-color: initial;&quot;&gt;&lt;br&gt;&lt;/span&gt;&lt;/div&gt;&lt;div&gt;&lt;div&gt;&lt;span style=&quot;background-color: initial;&quot;&gt;GetSupportRequest&lt;/span&gt;&lt;/div&gt;&lt;span style=&quot;text-align: center; background-color: initial;&quot;&gt;&lt;div style=&quot;text-align: left;&quot;&gt;&lt;span style=&quot;background-color: initial;&quot;&gt;GetSupportRequests&lt;/span&gt;&lt;/div&gt;&lt;div style=&quot;text-align: left;&quot;&gt;&lt;span style=&quot;background-color: initial;&quot;&gt;&lt;br&gt;&lt;/span&gt;&lt;/div&gt;&lt;div style=&quot;text-align: left;&quot;&gt;&lt;b style=&quot;font-size: 11px; text-align: center; text-wrap: nowrap;&quot;&gt;ИВ6&lt;/b&gt;&lt;span style=&quot;background-color: initial;&quot;&gt;&lt;br&gt;&lt;/span&gt;&lt;/div&gt;&lt;div style=&quot;text-align: left;&quot;&gt;&lt;div&gt;&lt;span style=&quot;background-color: initial;&quot;&gt;Create&lt;/span&gt;&lt;span style=&quot;background-color: initial;&quot;&gt;SupportRequest&lt;/span&gt;&lt;/div&gt;&lt;span style=&quot;text-align: center; background-color: initial;&quot;&gt;&lt;div style=&quot;text-align: left;&quot;&gt;&lt;span style=&quot;background-color: initial;&quot;&gt;Save&lt;/span&gt;&lt;span style=&quot;background-color: initial;&quot;&gt;SupportRequest&lt;/span&gt;&lt;/div&gt;&lt;/span&gt;&lt;span style=&quot;text-align: center; background-color: initial;&quot;&gt;&lt;div style=&quot;text-align: left;&quot;&gt;&lt;span style=&quot;background-color: initial;&quot;&gt;ChangeStarusRequest&lt;/span&gt;&lt;/div&gt;&lt;/span&gt;&lt;span style=&quot;text-align: center; background-color: initial;&quot;&gt;&lt;div style=&quot;text-align: left;&quot;&gt;&lt;span style=&quot;background-color: initial;&quot;&gt;Get&lt;/span&gt;&lt;span style=&quot;background-color: initial;&quot;&gt;SupportRequest&lt;/span&gt;&lt;/div&gt;&lt;/span&gt;&lt;span style=&quot;text-align: center; background-color: initial;&quot;&gt;&lt;div style=&quot;text-align: left;&quot;&gt;&lt;span style=&quot;background-color: initial;&quot;&gt;Get&lt;/span&gt;&lt;span style=&quot;background-color: initial;&quot;&gt;SupportRequests&lt;/span&gt;&lt;/div&gt;&lt;div style=&quot;text-align: left;&quot;&gt;&lt;span style=&quot;background-color: initial;&quot;&gt;&lt;br&gt;&lt;/span&gt;&lt;/div&gt;&lt;div style=&quot;text-align: left;&quot;&gt;&lt;span style=&quot;background-color: initial;&quot;&gt;&lt;b&gt;ИВ7&lt;/b&gt;&lt;/span&gt;&lt;/div&gt;&lt;div style=&quot;text-align: left;&quot;&gt;&lt;div&gt;&lt;span style=&quot;background-color: initial;&quot;&gt;Save&lt;/span&gt;&lt;span style=&quot;background-color: initial;&quot;&gt;Auction&lt;/span&gt;&lt;/div&gt;&lt;span style=&quot;text-align: center; background-color: initial;&quot;&gt;&lt;div style=&quot;text-align: left;&quot;&gt;&lt;span style=&quot;background-color: initial;&quot;&gt;GetAuction&lt;/span&gt;&lt;/div&gt;&lt;/span&gt;&lt;span style=&quot;text-align: center; background-color: initial;&quot;&gt;&lt;div style=&quot;text-align: left;&quot;&gt;&lt;span style=&quot;background-color: initial;&quot;&gt;GetAuctions&lt;/span&gt;&lt;/div&gt;&lt;div style=&quot;text-align: left;&quot;&gt;&lt;span style=&quot;background-color: initial;&quot;&gt;&lt;br&gt;&lt;/span&gt;&lt;/div&gt;&lt;div style=&quot;text-align: left;&quot;&gt;&lt;span style=&quot;background-color: initial;&quot;&gt;&lt;b&gt;ИВ8&lt;/b&gt;&lt;/span&gt;&lt;/div&gt;&lt;div style=&quot;text-align: left;&quot;&gt;&lt;span style=&quot;background-color: initial; white-space-collapse: preserve;&quot; data-src-align=&quot;23:8&quot; class=&quot;EzKURWReUAB5oZgtQNkl&quot;&gt;SalesR&lt;/span&gt;&lt;span style=&quot;background-color: initial; white-space-collapse: preserve;&quot; data-src-align=&quot;14:5&quot; class=&quot;EzKURWReUAB5oZgtQNkl&quot;&gt;eport&lt;/span&gt;&lt;br&gt;&lt;span style=&quot;white-space-collapse: preserve; background-color: initial;&quot;&gt;UserActivityReport&lt;/span&gt;&lt;br&gt;&lt;/div&gt;&lt;div style=&quot;text-align: left;&quot;&gt;&lt;span style=&quot;white-space-collapse: preserve; background-color: initial;&quot;&gt;&lt;br&gt;&lt;/span&gt;&lt;/div&gt;&lt;div style=&quot;text-align: left;&quot;&gt;&lt;span style=&quot;white-space-collapse: preserve;&quot;&gt;&lt;b&gt;ИВ9&lt;/b&gt;&lt;/span&gt;&lt;/div&gt;&lt;div style=&quot;text-align: left;&quot;&gt;&lt;span style=&quot;background-color: initial; white-space-collapse: preserve;&quot;&gt;Create&lt;/span&gt;Application&lt;br&gt;&lt;span style=&quot;background-color: initial; white-space-collapse: preserve;&quot;&gt;Delete&lt;/span&gt;Application&lt;br&gt;&lt;span style=&quot;background-color: initial; white-space-collapse: preserve;&quot;&gt;Save&lt;/span&gt;Application&lt;br&gt;&lt;span style=&quot;background-color: initial;&quot;&gt;GetApplication&lt;/span&gt;&lt;br&gt;&lt;span style=&quot;background-color: initial;&quot;&gt;GetApplications&lt;/span&gt;&lt;br&gt;&lt;span style=&quot;background-color: initial; white-space-collapse: preserve;&quot;&gt;UpdateStatus&lt;/span&gt;&lt;/div&gt;&lt;div style=&quot;text-align: left;&quot;&gt;&lt;span style=&quot;white-space-collapse: preserve;&quot;&gt;&lt;b&gt;&lt;br&gt;&lt;/b&gt;&lt;/span&gt;&lt;/div&gt;&lt;div style=&quot;text-align: left;&quot;&gt;&lt;span style=&quot;white-space-collapse: preserve;&quot;&gt;&lt;b&gt;ИВ10&lt;/b&gt;&lt;/span&gt;&lt;/div&gt;&lt;div style=&quot;text-align: left;&quot;&gt;&lt;div&gt;&lt;span style=&quot;background-color: initial; white-space-collapse: preserve;&quot;&gt;Save&lt;/span&gt;&lt;span style=&quot;background-color: initial;&quot;&gt;Application&lt;/span&gt;&lt;/div&gt;&lt;span style=&quot;text-align: center; background-color: initial;&quot;&gt;&lt;div style=&quot;text-align: left;&quot;&gt;&lt;span style=&quot;background-color: initial;&quot;&gt;GetApplication&lt;/span&gt;&lt;/div&gt;&lt;/span&gt;&lt;span style=&quot;text-align: center; background-color: initial;&quot;&gt;&lt;div style=&quot;text-align: left;&quot;&gt;&lt;span style=&quot;background-color: initial;&quot;&gt;GetApplications&lt;/span&gt;&lt;/div&gt;&lt;/span&gt;&lt;span style=&quot;text-align: center; background-color: initial;&quot;&gt;&lt;div style=&quot;white-space-collapse: preserve; text-align: left;&quot;&gt;&lt;span style=&quot;background-color: initial;&quot;&gt;UpdateStatus&lt;/span&gt;&lt;span style=&quot;background-color: initial; white-space-collapse: collapse;&quot;&gt;Application&lt;/span&gt;&lt;/div&gt;&lt;div style=&quot;white-space-collapse: preserve; text-align: left;&quot;&gt;&lt;span style=&quot;background-color: initial; white-space-collapse: collapse;&quot;&gt;&lt;br&gt;&lt;/span&gt;&lt;/div&gt;&lt;div style=&quot;text-align: left;&quot;&gt;&lt;b&gt;ИВ11&lt;/b&gt;&lt;/div&gt;&lt;div style=&quot;text-align: left;&quot;&gt;&lt;span style=&quot;white-space-collapse: preserve; background-color: initial;&quot;&gt;Initiate&lt;/span&gt;&lt;span style=&quot;white-space-collapse: preserve;&quot;&gt;Transaction&lt;/span&gt;&lt;br&gt;&lt;span style=&quot;white-space-collapse: preserve; background-color: initial;&quot;&gt;Confirm&lt;/span&gt;&lt;span style=&quot;white-space-collapse: preserve;&quot;&gt;Transaction&lt;/span&gt;&lt;br&gt;&lt;span style=&quot;white-space-collapse: preserve; background-color: initial;&quot;&gt;GetStatus&lt;/span&gt;&lt;span style=&quot;white-space-collapse: preserve;&quot;&gt;Transaction&lt;/span&gt;&lt;br&gt;&lt;span style=&quot;white-space-collapse: preserve; background-color: initial;&quot; data-src-align=&quot;0:12&quot; class=&quot;EzKURWReUAB5oZgtQNkl&quot;&gt;ConfirmC&lt;/span&gt;&lt;span style=&quot;white-space-collapse: preserve; background-color: initial;&quot; data-src-align=&quot;13:6&quot; class=&quot;EzKURWReUAB5oZgtQNkl&quot;&gt;ancellation&lt;/span&gt;&lt;span style=&quot;white-space-collapse: preserve;&quot;&gt;Transaction&lt;/span&gt;&lt;br&gt;&lt;span style=&quot;white-space-collapse: preserve; background-color: initial;&quot;&gt;GetPaymentTransaction&lt;/span&gt;&lt;br&gt;&lt;span style=&quot;white-space-collapse: preserve; background-color: initial;&quot;&gt;GetPaymentTransactions&lt;/span&gt;&lt;br&gt;&lt;/div&gt;&lt;/span&gt;&lt;/div&gt;&lt;div style=&quot;text-align: left;&quot;&gt;&lt;span style=&quot;white-space-collapse: preserve;&quot;&gt;&lt;br&gt;&lt;/span&gt;&lt;/div&gt;&lt;div style=&quot;text-align: left;&quot;&gt;&lt;span style=&quot;background-color: initial;&quot;&gt;&lt;b&gt;ИВ 12/13&lt;/b&gt;&lt;/span&gt;&lt;/div&gt;&lt;div style=&quot;text-align: left;&quot;&gt;&lt;span style=&quot;background-color: initial;&quot;&gt;Notification&lt;/span&gt;&lt;/div&gt;&lt;/span&gt;&lt;/div&gt;&lt;/span&gt;&lt;/div&gt;&lt;/span&gt;&lt;/div&gt;&lt;/div&gt;&lt;/span&gt;" style="rounded=0;whiteSpace=wrap;html=1;align=left;" vertex="1" parent="1">
          <mxGeometry x="1890" y="-410" width="220" height="1040" as="geometry" />
        </mxCell>
        <mxCell id="Bt5aDinGUWlxkMjQN304-40" value="" style="endArrow=classic;startArrow=classic;html=1;rounded=0;entryX=0;entryY=0.75;entryDx=0;entryDy=0;exitX=0.987;exitY=0.527;exitDx=0;exitDy=0;exitPerimeter=0;" edge="1" parent="1" source="Bt5aDinGUWlxkMjQN304-35" target="Bt5aDinGUWlxkMjQN304-36">
          <mxGeometry width="50" height="50" relative="1" as="geometry">
            <mxPoint x="1357.5" y="280" as="sourcePoint" />
            <mxPoint x="1302.5" y="100" as="targetPoint" />
            <Array as="points" />
          </mxGeometry>
        </mxCell>
        <mxCell id="Bt5aDinGUWlxkMjQN304-45" value="" style="endArrow=classic;startArrow=classic;html=1;rounded=0;exitX=1;exitY=0.5;exitDx=0;exitDy=0;" edge="1" parent="1" source="Bt5aDinGUWlxkMjQN304-21">
          <mxGeometry width="50" height="50" relative="1" as="geometry">
            <mxPoint x="952.5" y="146.5" as="sourcePoint" />
            <mxPoint x="1152.5" y="156.5" as="targetPoint" />
            <Array as="points" />
          </mxGeometry>
        </mxCell>
        <mxCell id="Bt5aDinGUWlxkMjQN304-46" value="ИВ2" style="edgeLabel;html=1;align=center;verticalAlign=middle;resizable=0;points=[];" vertex="1" connectable="0" parent="Bt5aDinGUWlxkMjQN304-45">
          <mxGeometry x="-0.3086" relative="1" as="geometry">
            <mxPoint x="12" y="-10" as="offset" />
          </mxGeometry>
        </mxCell>
        <mxCell id="Bt5aDinGUWlxkMjQN304-47" value="" style="endArrow=classic;startArrow=classic;html=1;rounded=0;" edge="1" parent="1" source="Bt5aDinGUWlxkMjQN304-23">
          <mxGeometry width="50" height="50" relative="1" as="geometry">
            <mxPoint x="1032.5" y="291.5" as="sourcePoint" />
            <mxPoint x="1151.5" y="317" as="targetPoint" />
            <Array as="points" />
          </mxGeometry>
        </mxCell>
        <mxCell id="Bt5aDinGUWlxkMjQN304-48" value="ИВ3" style="edgeLabel;html=1;align=center;verticalAlign=middle;resizable=0;points=[];" vertex="1" connectable="0" parent="Bt5aDinGUWlxkMjQN304-47">
          <mxGeometry x="-0.57" y="2" relative="1" as="geometry">
            <mxPoint x="23" y="-11" as="offset" />
          </mxGeometry>
        </mxCell>
        <mxCell id="Bt5aDinGUWlxkMjQN304-53" value="" style="endArrow=classic;startArrow=classic;html=1;rounded=0;entryX=1;entryY=0.5;entryDx=0;entryDy=0;" edge="1" parent="1" target="Bt5aDinGUWlxkMjQN304-16">
          <mxGeometry width="50" height="50" relative="1" as="geometry">
            <mxPoint x="1150" y="-25" as="sourcePoint" />
            <mxPoint x="1042.5" y="-23" as="targetPoint" />
          </mxGeometry>
        </mxCell>
        <mxCell id="Bt5aDinGUWlxkMjQN304-54" value="ИВ5" style="edgeLabel;html=1;align=center;verticalAlign=middle;resizable=0;points=[];" vertex="1" connectable="0" parent="Bt5aDinGUWlxkMjQN304-53">
          <mxGeometry x="-0.4566" y="-3" relative="1" as="geometry">
            <mxPoint x="-22" y="-12" as="offset" />
          </mxGeometry>
        </mxCell>
        <mxCell id="Bt5aDinGUWlxkMjQN304-60" value="&lt;b style=&quot;text-align: left; background-color: initial;&quot;&gt;BFF Support&lt;/b&gt;&lt;div&gt;&lt;div style=&quot;text-align: left;&quot;&gt;&lt;b&gt;&lt;br&gt;&lt;/b&gt;&lt;/div&gt;&lt;div style=&quot;text-align: left;&quot;&gt;&lt;span style=&quot;background-color: initial;&quot;&gt;Create&lt;/span&gt;&lt;span style=&quot;background-color: initial;&quot;&gt;SupportRequest&lt;/span&gt;&lt;/div&gt;&lt;span style=&quot;background-color: initial;&quot;&gt;&lt;div style=&quot;text-align: left;&quot;&gt;&lt;span style=&quot;background-color: initial;&quot;&gt;Save&lt;/span&gt;&lt;span style=&quot;background-color: initial;&quot;&gt;SupportRequest&lt;/span&gt;&lt;/div&gt;&lt;/span&gt;&lt;span style=&quot;background-color: initial;&quot;&gt;&lt;div style=&quot;text-align: left;&quot;&gt;&lt;span style=&quot;background-color: initial;&quot;&gt;ChangeStarusRequest&lt;/span&gt;&lt;/div&gt;&lt;/span&gt;&lt;span style=&quot;background-color: initial;&quot;&gt;&lt;div style=&quot;text-align: left;&quot;&gt;&lt;span style=&quot;background-color: initial;&quot;&gt;Get&lt;/span&gt;&lt;span style=&quot;background-color: initial;&quot;&gt;SupportRequest&lt;/span&gt;&lt;/div&gt;&lt;/span&gt;&lt;span style=&quot;background-color: initial;&quot;&gt;&lt;div style=&quot;text-align: left;&quot;&gt;&lt;span style=&quot;background-color: initial;&quot;&gt;Get&lt;/span&gt;&lt;span style=&quot;background-color: initial;&quot;&gt;SupportRequest&lt;/span&gt;&lt;span style=&quot;background-color: initial;&quot;&gt;s&lt;/span&gt;&lt;/div&gt;&lt;/span&gt;&lt;/div&gt;" style="rounded=1;whiteSpace=wrap;html=1;direction=south;" vertex="1" parent="1">
          <mxGeometry x="526" y="120" width="140" height="140" as="geometry" />
        </mxCell>
        <mxCell id="Bt5aDinGUWlxkMjQN304-62" value="" style="endArrow=classic;startArrow=classic;html=1;rounded=0;entryX=0.5;entryY=1;entryDx=0;entryDy=0;" edge="1" parent="1" target="Bt5aDinGUWlxkMjQN304-60">
          <mxGeometry width="50" height="50" relative="1" as="geometry">
            <mxPoint x="316.5" y="190" as="sourcePoint" />
            <mxPoint x="832.5" y="70" as="targetPoint" />
            <Array as="points" />
          </mxGeometry>
        </mxCell>
        <mxCell id="Bt5aDinGUWlxkMjQN304-68" value="" style="endArrow=classic;startArrow=classic;html=1;rounded=0;entryX=0;entryY=0.75;entryDx=0;entryDy=0;exitX=0.5;exitY=0;exitDx=0;exitDy=0;" edge="1" parent="1" source="Bt5aDinGUWlxkMjQN304-71" target="Bt5aDinGUWlxkMjQN304-19">
          <mxGeometry width="50" height="50" relative="1" as="geometry">
            <mxPoint x="612.5" y="389" as="sourcePoint" />
            <mxPoint x="692.5" y="180" as="targetPoint" />
            <Array as="points" />
          </mxGeometry>
        </mxCell>
        <mxCell id="Bt5aDinGUWlxkMjQN304-70" value="ИВ7" style="edgeLabel;html=1;align=center;verticalAlign=middle;resizable=0;points=[];" vertex="1" connectable="0" parent="Bt5aDinGUWlxkMjQN304-68">
          <mxGeometry x="-0.313" y="5" relative="1" as="geometry">
            <mxPoint x="19" y="-5" as="offset" />
          </mxGeometry>
        </mxCell>
        <mxCell id="Bt5aDinGUWlxkMjQN304-71" value="&lt;b style=&quot;text-align: left; background-color: initial;&quot;&gt;BFF A&lt;/b&gt;&lt;span style=&quot;white-space-collapse: preserve;&quot; data-src-align=&quot;0:13&quot; class=&quot;EzKURWReUAB5oZgtQNkl&quot;&gt;dministrator&lt;/span&gt;&lt;div&gt;&lt;div style=&quot;text-align: left;&quot;&gt;&lt;br&gt;&lt;/div&gt;&lt;span style=&quot;background-color: initial;&quot;&gt;&lt;div style=&quot;&quot;&gt;&lt;div style=&quot;text-align: left;&quot;&gt;&lt;span style=&quot;background-color: initial;&quot;&gt;Save&lt;/span&gt;&lt;span style=&quot;background-color: initial;&quot;&gt;Auction&lt;/span&gt;&lt;/div&gt;&lt;span style=&quot;background-color: initial;&quot;&gt;&lt;div style=&quot;text-align: left;&quot;&gt;&lt;span style=&quot;background-color: initial;&quot;&gt;GetAuction&lt;/span&gt;&lt;/div&gt;&lt;/span&gt;&lt;span style=&quot;background-color: initial;&quot;&gt;&lt;div style=&quot;text-align: left;&quot;&gt;&lt;span style=&quot;background-color: initial;&quot;&gt;GetAuctions&lt;/span&gt;&lt;/div&gt;&lt;div style=&quot;text-align: left;&quot;&gt;&lt;span style=&quot;background-color: initial;&quot;&gt;&lt;br&gt;&lt;/span&gt;&lt;/div&gt;&lt;div style=&quot;&quot;&gt;&lt;div style=&quot;text-align: left;&quot;&gt;&lt;span style=&quot;background-color: initial; white-space-collapse: preserve;&quot;&gt;Save&lt;/span&gt;&lt;span style=&quot;background-color: initial;&quot;&gt;Application&lt;/span&gt;&lt;/div&gt;&lt;span style=&quot;background-color: initial;&quot;&gt;&lt;div style=&quot;text-align: left;&quot;&gt;&lt;span style=&quot;background-color: initial;&quot;&gt;GetApplication&lt;/span&gt;&lt;/div&gt;&lt;/span&gt;&lt;span style=&quot;background-color: initial;&quot;&gt;&lt;div style=&quot;text-align: left;&quot;&gt;&lt;span style=&quot;background-color: initial;&quot;&gt;GetApplications&lt;/span&gt;&lt;/div&gt;&lt;/span&gt;&lt;span style=&quot;white-space-collapse: preserve; background-color: initial;&quot;&gt;&lt;div style=&quot;text-align: left;&quot;&gt;&lt;span style=&quot;background-color: initial;&quot;&gt;UpdateStatus&lt;/span&gt;&lt;span style=&quot;background-color: initial; white-space-collapse: collapse;&quot;&gt;Application&lt;/span&gt;&lt;/div&gt;&lt;/span&gt;&lt;/div&gt;&lt;/span&gt;&lt;/div&gt;&lt;/span&gt;&lt;/div&gt;" style="rounded=1;whiteSpace=wrap;html=1;direction=south;" vertex="1" parent="1">
          <mxGeometry x="526" y="480" width="166.5" height="150" as="geometry" />
        </mxCell>
        <mxCell id="Bt5aDinGUWlxkMjQN304-72" value="" style="endArrow=classic;startArrow=classic;html=1;rounded=0;entryX=0.5;entryY=1;entryDx=0;entryDy=0;" edge="1" parent="1" target="Bt5aDinGUWlxkMjQN304-71">
          <mxGeometry width="50" height="50" relative="1" as="geometry">
            <mxPoint x="317.5" y="555" as="sourcePoint" />
            <mxPoint x="611.0675000000003" y="480.0000000000001" as="targetPoint" />
            <Array as="points" />
          </mxGeometry>
        </mxCell>
        <mxCell id="Bt5aDinGUWlxkMjQN304-76" value="" style="endArrow=classic;html=1;rounded=0;entryX=0.021;entryY=0.541;entryDx=0;entryDy=0;exitX=0.5;exitY=0;exitDx=0;exitDy=0;entryPerimeter=0;" edge="1" parent="1" source="Bt5aDinGUWlxkMjQN304-25" target="Bt5aDinGUWlxkMjQN304-16">
          <mxGeometry width="50" height="50" relative="1" as="geometry">
            <mxPoint x="757.5" y="30" as="sourcePoint" />
            <mxPoint x="1037.5" y="180" as="targetPoint" />
            <Array as="points">
              <mxPoint x="753" y="-20" />
            </Array>
          </mxGeometry>
        </mxCell>
        <mxCell id="Bt5aDinGUWlxkMjQN304-77" value="" style="endArrow=classic;html=1;rounded=0;entryX=0;entryY=0.25;entryDx=0;entryDy=0;" edge="1" parent="1" target="Bt5aDinGUWlxkMjQN304-21">
          <mxGeometry width="50" height="50" relative="1" as="geometry">
            <mxPoint x="827.5" y="117" as="sourcePoint" />
            <mxPoint x="857.5" y="109" as="targetPoint" />
          </mxGeometry>
        </mxCell>
        <mxCell id="Bt5aDinGUWlxkMjQN304-79" value="" style="endArrow=classic;html=1;rounded=0;entryX=0;entryY=0.5;entryDx=0;entryDy=0;exitX=0.5;exitY=0;exitDx=0;exitDy=0;" edge="1" parent="1" source="Bt5aDinGUWlxkMjQN304-25" target="Bt5aDinGUWlxkMjQN304-26">
          <mxGeometry width="50" height="50" relative="1" as="geometry">
            <mxPoint x="747.5" y="30" as="sourcePoint" />
            <mxPoint x="1037.5" y="-50" as="targetPoint" />
            <Array as="points">
              <mxPoint x="752.5" y="-177" />
            </Array>
          </mxGeometry>
        </mxCell>
        <mxCell id="Bt5aDinGUWlxkMjQN304-80" value="" style="endArrow=classic;html=1;rounded=0;entryX=0;entryY=0.5;entryDx=0;entryDy=0;" edge="1" parent="1" target="Bt5aDinGUWlxkMjQN304-23">
          <mxGeometry width="50" height="50" relative="1" as="geometry">
            <mxPoint x="761.5" y="158" as="sourcePoint" />
            <mxPoint x="847.5" y="320" as="targetPoint" />
            <Array as="points">
              <mxPoint x="761.5" y="320" />
            </Array>
          </mxGeometry>
        </mxCell>
        <mxCell id="Bt5aDinGUWlxkMjQN304-81" value="" style="endArrow=classic;html=1;rounded=0;entryX=0.011;entryY=0.547;entryDx=0;entryDy=0;entryPerimeter=0;" edge="1" parent="1" target="Bt5aDinGUWlxkMjQN304-19">
          <mxGeometry width="50" height="50" relative="1" as="geometry">
            <mxPoint x="757.5" y="158" as="sourcePoint" />
            <mxPoint x="877.5" y="510" as="targetPoint" />
            <Array as="points">
              <mxPoint x="757.5" y="514" />
            </Array>
          </mxGeometry>
        </mxCell>
        <mxCell id="Bt5aDinGUWlxkMjQN304-83" value="" style="endArrow=classic;startArrow=classic;html=1;rounded=0;exitX=0.985;exitY=0.382;exitDx=0;exitDy=0;exitPerimeter=0;" edge="1" parent="1" source="Bt5aDinGUWlxkMjQN304-19">
          <mxGeometry width="50" height="50" relative="1" as="geometry">
            <mxPoint x="987.5" y="410" as="sourcePoint" />
            <mxPoint x="1150" y="483" as="targetPoint" />
          </mxGeometry>
        </mxCell>
        <mxCell id="Bt5aDinGUWlxkMjQN304-84" value="ИВ4" style="edgeLabel;html=1;align=center;verticalAlign=middle;resizable=0;points=[];" vertex="1" connectable="0" parent="Bt5aDinGUWlxkMjQN304-83">
          <mxGeometry x="0.0295" y="3" relative="1" as="geometry">
            <mxPoint y="-9" as="offset" />
          </mxGeometry>
        </mxCell>
        <mxCell id="Bt5aDinGUWlxkMjQN304-87" value="" style="endArrow=classic;startArrow=classic;html=1;rounded=0;exitX=1;exitY=0.25;exitDx=0;exitDy=0;" edge="1" parent="1">
          <mxGeometry width="50" height="50" relative="1" as="geometry">
            <mxPoint x="827.4999999999998" y="70" as="sourcePoint" />
            <mxPoint x="1157.5" y="71" as="targetPoint" />
          </mxGeometry>
        </mxCell>
        <mxCell id="Bt5aDinGUWlxkMjQN304-88" value="ИВ8" style="edgeLabel;html=1;align=center;verticalAlign=middle;resizable=0;points=[];" vertex="1" connectable="0" parent="Bt5aDinGUWlxkMjQN304-87">
          <mxGeometry x="-0.3264" y="-4" relative="1" as="geometry">
            <mxPoint x="162" y="-14" as="offset" />
          </mxGeometry>
        </mxCell>
        <mxCell id="Bt5aDinGUWlxkMjQN304-90" value="" style="endArrow=classic;startArrow=classic;html=1;rounded=0;exitX=1;exitY=0.5;exitDx=0;exitDy=0;" edge="1" parent="1" source="Bt5aDinGUWlxkMjQN304-28">
          <mxGeometry width="50" height="50" relative="1" as="geometry">
            <mxPoint x="1027.5" y="620" as="sourcePoint" />
            <mxPoint x="1180" y="569" as="targetPoint" />
            <Array as="points">
              <mxPoint x="1179.5" y="700" />
            </Array>
          </mxGeometry>
        </mxCell>
        <mxCell id="Bt5aDinGUWlxkMjQN304-91" value="ИВ9" style="edgeLabel;html=1;align=center;verticalAlign=middle;resizable=0;points=[];" vertex="1" connectable="0" parent="Bt5aDinGUWlxkMjQN304-90">
          <mxGeometry x="-0.5939" y="3" relative="1" as="geometry">
            <mxPoint x="-1" y="-7" as="offset" />
          </mxGeometry>
        </mxCell>
        <mxCell id="Bt5aDinGUWlxkMjQN304-92" value="" style="endArrow=classic;startArrow=classic;html=1;rounded=0;" edge="1" parent="1" target="Bt5aDinGUWlxkMjQN304-28">
          <mxGeometry width="50" height="50" relative="1" as="geometry">
            <mxPoint x="627.5" y="630" as="sourcePoint" />
            <mxPoint x="759" y="675" as="targetPoint" />
            <Array as="points">
              <mxPoint x="627.5" y="700" />
            </Array>
          </mxGeometry>
        </mxCell>
        <mxCell id="Bt5aDinGUWlxkMjQN304-93" value="ИВ 10" style="edgeLabel;html=1;align=center;verticalAlign=middle;resizable=0;points=[];" vertex="1" connectable="0" parent="Bt5aDinGUWlxkMjQN304-92">
          <mxGeometry x="0.2874" relative="1" as="geometry">
            <mxPoint y="-10" as="offset" />
          </mxGeometry>
        </mxCell>
        <mxCell id="Bt5aDinGUWlxkMjQN304-94" value="" style="endArrow=classic;html=1;rounded=0;exitX=0.5;exitY=1;exitDx=0;exitDy=0;entryX=0;entryY=0.25;entryDx=0;entryDy=0;" edge="1" parent="1" source="Bt5aDinGUWlxkMjQN304-25" target="Bt5aDinGUWlxkMjQN304-28">
          <mxGeometry width="50" height="50" relative="1" as="geometry">
            <mxPoint x="917.5" y="390" as="sourcePoint" />
            <mxPoint x="967.5" y="340" as="targetPoint" />
            <Array as="points">
              <mxPoint x="752.5" y="665" />
            </Array>
          </mxGeometry>
        </mxCell>
        <mxCell id="Bt5aDinGUWlxkMjQN304-95" value="" style="group" vertex="1" connectable="0" parent="1">
          <mxGeometry x="1710" y="730" width="514" height="244" as="geometry" />
        </mxCell>
        <mxCell id="Bt5aDinGUWlxkMjQN304-96" value="" style="rounded=1;whiteSpace=wrap;html=1;arcSize=5;fillColor=#fff2cc;strokeColor=#D6B656;" vertex="1" parent="Bt5aDinGUWlxkMjQN304-95">
          <mxGeometry width="514" height="244" as="geometry" />
        </mxCell>
        <mxCell id="Bt5aDinGUWlxkMjQN304-97" value="Яндекс.Pay" style="text;html=1;align=center;verticalAlign=middle;whiteSpace=wrap;rounded=1;shadow=0;fontSize=23;fontStyle=1" vertex="1" parent="Bt5aDinGUWlxkMjQN304-95">
          <mxGeometry width="150" height="49" as="geometry" />
        </mxCell>
        <mxCell id="Bt5aDinGUWlxkMjQN304-98" value="" style="strokeWidth=2;html=1;shape=mxgraph.flowchart.database;whiteSpace=wrap;rounded=1;movable=1;resizable=1;rotatable=1;deletable=1;editable=1;locked=0;connectable=1;" vertex="1" parent="1">
          <mxGeometry x="1990" y="790" width="220" height="171" as="geometry" />
        </mxCell>
        <mxCell id="Bt5aDinGUWlxkMjQN304-99" value="&lt;p style=&quot;margin: 0px 0px 0px 13px; text-indent: -13px; font-variant-numeric: normal; font-variant-east-asian: normal; font-variant-alternates: normal; font-kerning: auto; font-optical-sizing: auto; font-feature-settings: normal; font-variation-settings: normal; font-variant-position: normal; font-stretch: normal; font-size: 14px; line-height: normal; text-align: start;&quot; class=&quot;p1&quot;&gt;&lt;span style=&quot;font-size: 12px; text-align: center; text-indent: 0px;&quot;&gt;[Транзакция.Статус]&lt;/span&gt;&lt;br&gt;&lt;/p&gt;" style="rounded=1;whiteSpace=wrap;html=1;fillColor=#B8B8B8;strokeColor=#FFD966;" vertex="1" parent="1">
          <mxGeometry x="2040" y="880" width="119" height="21" as="geometry" />
        </mxCell>
        <mxCell id="Bt5aDinGUWlxkMjQN304-100" value="&lt;p style=&quot;margin: 0px 0px 0px 13px; text-indent: -13px; font-variant-numeric: normal; font-variant-east-asian: normal; font-variant-alternates: normal; font-kerning: auto; font-optical-sizing: auto; font-feature-settings: normal; font-variation-settings: normal; font-variant-position: normal; font-stretch: normal; font-size: 14px; line-height: normal; text-align: start;&quot; class=&quot;p1&quot;&gt;&lt;span style=&quot;font-size: 12px; text-align: center; text-indent: 0px;&quot;&gt;[Транзакция.ID]&lt;/span&gt;&lt;br&gt;&lt;/p&gt;" style="rounded=1;whiteSpace=wrap;html=1;fillColor=#B8B8B8;strokeColor=#FFD966;" vertex="1" parent="1">
          <mxGeometry x="2040" y="910" width="119" height="21" as="geometry" />
        </mxCell>
        <mxCell id="Bt5aDinGUWlxkMjQN304-101" value="" style="group" vertex="1" connectable="0" parent="1">
          <mxGeometry x="1700" y="780" width="260" height="39" as="geometry" />
        </mxCell>
        <mxCell id="Bt5aDinGUWlxkMjQN304-102" value="" style="rounded=1;whiteSpace=wrap;html=1;fillColor=#ffe6cc;strokeColor=#d79b00;" vertex="1" parent="Bt5aDinGUWlxkMjQN304-101">
          <mxGeometry x="10" width="250" height="39" as="geometry" />
        </mxCell>
        <mxCell id="Bt5aDinGUWlxkMjQN304-103" value="" style="sketch=0;outlineConnect=0;fontColor=#232F3E;gradientColor=none;fillColor=#232F3D;strokeColor=none;dashed=0;verticalLabelPosition=bottom;verticalAlign=top;align=center;html=1;fontSize=12;fontStyle=0;aspect=fixed;pointerEvents=1;shape=mxgraph.aws4.gear;rounded=1;" vertex="1" parent="Bt5aDinGUWlxkMjQN304-101">
          <mxGeometry x="230" y="11" width="17" height="17" as="geometry" />
        </mxCell>
        <mxCell id="Bt5aDinGUWlxkMjQN304-104" value="Инициировать платёж" style="text;html=1;align=center;verticalAlign=middle;whiteSpace=wrap;rounded=1;fontSize=13;" vertex="1" parent="Bt5aDinGUWlxkMjQN304-101">
          <mxGeometry y="4.5" width="170" height="30" as="geometry" />
        </mxCell>
        <mxCell id="Bt5aDinGUWlxkMjQN304-105" value="" style="group" vertex="1" connectable="0" parent="1">
          <mxGeometry x="1700" y="830" width="260" height="39" as="geometry" />
        </mxCell>
        <mxCell id="Bt5aDinGUWlxkMjQN304-106" value="" style="rounded=1;whiteSpace=wrap;html=1;fillColor=#ffe6cc;strokeColor=#d79b00;" vertex="1" parent="Bt5aDinGUWlxkMjQN304-105">
          <mxGeometry x="10" width="250" height="39" as="geometry" />
        </mxCell>
        <mxCell id="Bt5aDinGUWlxkMjQN304-107" value="" style="sketch=0;outlineConnect=0;fontColor=#232F3E;gradientColor=none;fillColor=#232F3D;strokeColor=none;dashed=0;verticalLabelPosition=bottom;verticalAlign=top;align=center;html=1;fontSize=12;fontStyle=0;aspect=fixed;pointerEvents=1;shape=mxgraph.aws4.gear;rounded=1;" vertex="1" parent="Bt5aDinGUWlxkMjQN304-105">
          <mxGeometry x="230" y="11" width="17" height="17" as="geometry" />
        </mxCell>
        <mxCell id="Bt5aDinGUWlxkMjQN304-108" value="Подтвердить платёж" style="text;html=1;align=center;verticalAlign=middle;whiteSpace=wrap;rounded=1;fontSize=13;" vertex="1" parent="Bt5aDinGUWlxkMjQN304-105">
          <mxGeometry y="4.5" width="170" height="30" as="geometry" />
        </mxCell>
        <mxCell id="Bt5aDinGUWlxkMjQN304-109" value="" style="group" vertex="1" connectable="0" parent="1">
          <mxGeometry x="1710" y="880" width="250" height="39" as="geometry" />
        </mxCell>
        <mxCell id="Bt5aDinGUWlxkMjQN304-110" value="" style="rounded=1;whiteSpace=wrap;html=1;fillColor=#ffe6cc;strokeColor=#d79b00;" vertex="1" parent="Bt5aDinGUWlxkMjQN304-109">
          <mxGeometry width="250" height="39" as="geometry" />
        </mxCell>
        <mxCell id="Bt5aDinGUWlxkMjQN304-111" value="" style="sketch=0;outlineConnect=0;fontColor=#232F3E;gradientColor=none;fillColor=#232F3D;strokeColor=none;dashed=0;verticalLabelPosition=bottom;verticalAlign=top;align=center;html=1;fontSize=12;fontStyle=0;aspect=fixed;pointerEvents=1;shape=mxgraph.aws4.gear;rounded=1;" vertex="1" parent="Bt5aDinGUWlxkMjQN304-109">
          <mxGeometry x="220" y="11" width="17" height="17" as="geometry" />
        </mxCell>
        <mxCell id="Bt5aDinGUWlxkMjQN304-112" value="Предоставить статус платежа" style="text;html=1;align=center;verticalAlign=middle;whiteSpace=wrap;rounded=1;fontSize=13;" vertex="1" parent="Bt5aDinGUWlxkMjQN304-109">
          <mxGeometry y="4.5" width="200" height="30" as="geometry" />
        </mxCell>
        <mxCell id="Bt5aDinGUWlxkMjQN304-113" value="" style="group" vertex="1" connectable="0" parent="1">
          <mxGeometry x="1700" y="930" width="260" height="39" as="geometry" />
        </mxCell>
        <mxCell id="Bt5aDinGUWlxkMjQN304-114" value="" style="rounded=1;whiteSpace=wrap;html=1;fillColor=#ffe6cc;strokeColor=#d79b00;" vertex="1" parent="Bt5aDinGUWlxkMjQN304-113">
          <mxGeometry x="10" width="250" height="39" as="geometry" />
        </mxCell>
        <mxCell id="Bt5aDinGUWlxkMjQN304-115" value="" style="sketch=0;outlineConnect=0;fontColor=#232F3E;gradientColor=none;fillColor=#232F3D;strokeColor=none;dashed=0;verticalLabelPosition=bottom;verticalAlign=top;align=center;html=1;fontSize=12;fontStyle=0;aspect=fixed;pointerEvents=1;shape=mxgraph.aws4.gear;rounded=1;" vertex="1" parent="Bt5aDinGUWlxkMjQN304-113">
          <mxGeometry x="230" y="11" width="17" height="17" as="geometry" />
        </mxCell>
        <mxCell id="Bt5aDinGUWlxkMjQN304-116" value="Подтвердить отмену платежа" style="text;html=1;align=center;verticalAlign=middle;whiteSpace=wrap;rounded=1;fontSize=13;" vertex="1" parent="Bt5aDinGUWlxkMjQN304-113">
          <mxGeometry y="4.5" width="210" height="30" as="geometry" />
        </mxCell>
        <mxCell id="Bt5aDinGUWlxkMjQN304-117" value="" style="endArrow=classic;html=1;rounded=0;exitX=1;exitY=0.25;exitDx=0;exitDy=0;" edge="1" parent="1" source="Bt5aDinGUWlxkMjQN304-29" target="Bt5aDinGUWlxkMjQN304-104">
          <mxGeometry width="50" height="50" relative="1" as="geometry">
            <mxPoint x="1069.5" y="887.15" as="sourcePoint" />
            <mxPoint x="1597.5" y="829.9955056179773" as="targetPoint" />
            <Array as="points">
              <mxPoint x="1277.5" y="857" />
              <mxPoint x="1277.5" y="800" />
            </Array>
          </mxGeometry>
        </mxCell>
        <mxCell id="Bt5aDinGUWlxkMjQN304-118" value="&lt;span style=&quot;white-space: pre-wrap; background-color: rgb(251, 251, 251); font-size: 12px; text-align: left;&quot;&gt; Initiate Payment &lt;/span&gt;" style="edgeLabel;html=1;align=center;verticalAlign=middle;resizable=0;points=[];" vertex="1" connectable="0" parent="Bt5aDinGUWlxkMjQN304-117">
          <mxGeometry x="-0.0436" relative="1" as="geometry">
            <mxPoint x="89" as="offset" />
          </mxGeometry>
        </mxCell>
        <mxCell id="Bt5aDinGUWlxkMjQN304-119" value="ИВ 11" style="endArrow=classic;startArrow=classic;html=1;rounded=0;exitX=0.5;exitY=0;exitDx=0;exitDy=0;entryX=0.467;entryY=0.996;entryDx=0;entryDy=0;entryPerimeter=0;" edge="1" parent="1" source="Bt5aDinGUWlxkMjQN304-29" target="Bt5aDinGUWlxkMjQN304-35">
          <mxGeometry x="-0.0981" y="10" width="50" height="50" relative="1" as="geometry">
            <mxPoint x="967.5" y="790" as="sourcePoint" />
            <mxPoint x="1307.5" y="710" as="targetPoint" />
            <Array as="points">
              <mxPoint x="976.5" y="790" />
              <mxPoint x="1240.5" y="790" />
            </Array>
            <mxPoint as="offset" />
          </mxGeometry>
        </mxCell>
        <mxCell id="Bt5aDinGUWlxkMjQN304-121" value="" style="endArrow=classic;html=1;rounded=0;exitX=0.996;exitY=0.349;exitDx=0;exitDy=0;exitPerimeter=0;entryX=0;entryY=0.5;entryDx=0;entryDy=0;" edge="1" parent="1" source="Bt5aDinGUWlxkMjQN304-29" target="Bt5aDinGUWlxkMjQN304-108">
          <mxGeometry width="50" height="50" relative="1" as="geometry">
            <mxPoint x="1257.5" y="760" as="sourcePoint" />
            <mxPoint x="1307.5" y="710" as="targetPoint" />
            <Array as="points">
              <mxPoint x="1337.5" y="872" />
              <mxPoint x="1337.5" y="850" />
            </Array>
          </mxGeometry>
        </mxCell>
        <mxCell id="Bt5aDinGUWlxkMjQN304-122" value="Confirm&lt;div&gt;Payment&lt;/div&gt;" style="edgeLabel;html=1;align=center;verticalAlign=middle;resizable=0;points=[];" vertex="1" connectable="0" parent="Bt5aDinGUWlxkMjQN304-121">
          <mxGeometry x="0.1962" y="-1" relative="1" as="geometry">
            <mxPoint x="-10" y="-1" as="offset" />
          </mxGeometry>
        </mxCell>
        <mxCell id="Bt5aDinGUWlxkMjQN304-123" value="" style="endArrow=classic;html=1;rounded=0;exitX=0.996;exitY=0.552;exitDx=0;exitDy=0;exitPerimeter=0;entryX=0;entryY=0.5;entryDx=0;entryDy=0;" edge="1" parent="1" source="Bt5aDinGUWlxkMjQN304-29" target="Bt5aDinGUWlxkMjQN304-112">
          <mxGeometry width="50" height="50" relative="1" as="geometry">
            <mxPoint x="1187.5" y="760" as="sourcePoint" />
            <mxPoint x="1237.5" y="710" as="targetPoint" />
            <Array as="points">
              <mxPoint x="1337.5" y="900" />
            </Array>
          </mxGeometry>
        </mxCell>
        <mxCell id="Bt5aDinGUWlxkMjQN304-124" value="GetStatus&lt;div&gt;Payment&lt;/div&gt;" style="edgeLabel;html=1;align=center;verticalAlign=middle;resizable=0;points=[];" vertex="1" connectable="0" parent="Bt5aDinGUWlxkMjQN304-123">
          <mxGeometry x="0.3334" relative="1" as="geometry">
            <mxPoint x="-68" y="-5" as="offset" />
          </mxGeometry>
        </mxCell>
        <mxCell id="Bt5aDinGUWlxkMjQN304-125" value="" style="endArrow=classic;html=1;rounded=0;exitX=1.007;exitY=0.662;exitDx=0;exitDy=0;exitPerimeter=0;entryX=0;entryY=0.5;entryDx=0;entryDy=0;" edge="1" parent="1" source="Bt5aDinGUWlxkMjQN304-29" target="Bt5aDinGUWlxkMjQN304-116">
          <mxGeometry width="50" height="50" relative="1" as="geometry">
            <mxPoint x="1267.5" y="860" as="sourcePoint" />
            <mxPoint x="1317.5" y="810" as="targetPoint" />
            <Array as="points">
              <mxPoint x="1237.5" y="920" />
              <mxPoint x="1237.5" y="950" />
            </Array>
          </mxGeometry>
        </mxCell>
        <mxCell id="Bt5aDinGUWlxkMjQN304-126" value="&lt;span style=&quot;white-space: pre-wrap; background-color: rgb(251, 251, 251); font-size: 12px; text-align: left;&quot; data-src-align=&quot;0:12&quot; class=&quot;EzKURWReUAB5oZgtQNkl&quot;&gt;ConfirmC&lt;/span&gt;&lt;span style=&quot;white-space: pre-wrap; background-color: rgb(251, 251, 251); font-size: 12px; text-align: left;&quot; data-src-align=&quot;13:6&quot; class=&quot;EzKURWReUAB5oZgtQNkl&quot;&gt;ancellation&lt;/span&gt;&lt;div&gt;&lt;span style=&quot;white-space: pre-wrap; background-color: rgb(251, 251, 251); font-size: 12px; text-align: left;&quot; data-src-align=&quot;13:6&quot; class=&quot;EzKURWReUAB5oZgtQNkl&quot;&gt;Payment&lt;/span&gt;&lt;/div&gt;" style="edgeLabel;html=1;align=center;verticalAlign=middle;resizable=0;points=[];" vertex="1" connectable="0" parent="Bt5aDinGUWlxkMjQN304-125">
          <mxGeometry x="0.2479" y="1" relative="1" as="geometry">
            <mxPoint x="-13" y="1" as="offset" />
          </mxGeometry>
        </mxCell>
        <mxCell id="Bt5aDinGUWlxkMjQN304-134" value="&lt;span style=&quot;white-space-collapse: preserve;&quot; data-src-align=&quot;0:14&quot; class=&quot;EzKURWReUAB5oZgtQNkl&quot;&gt;&lt;b&gt;Authentication&lt;/b&gt;&lt;/span&gt;&lt;div&gt;&lt;ul&gt;&lt;li style=&quot;text-align: left;&quot;&gt;&lt;span style=&quot;white-space-collapse: preserve; background-color: initial;&quot;&gt;Authentication&lt;/span&gt;&lt;/li&gt;&lt;li style=&quot;text-align: left;&quot;&gt;&lt;span style=&quot;white-space-collapse: preserve; background-color: initial;&quot; data-src-align=&quot;17:12&quot; class=&quot;EzKURWReUAB5oZgtQNkl&quot;&gt;Security&lt;/span&gt;&lt;span style=&quot;white-space-collapse: preserve; background-color: initial;&quot;&gt;T&lt;/span&gt;&lt;span style=&quot;white-space-collapse: preserve; background-color: initial;&quot; data-src-align=&quot;10:6&quot; class=&quot;EzKURWReUAB5oZgtQNkl&quot;&gt;oken&lt;/span&gt;&lt;span style=&quot;white-space-collapse: preserve; background-color: initial;&quot;&gt;Validation&lt;/span&gt;&lt;/li&gt;&lt;/ul&gt;&lt;/div&gt;" style="rounded=1;whiteSpace=wrap;html=1;direction=south;rotation=90;" vertex="1" parent="1">
          <mxGeometry x="200" y="347.5" width="495" height="70" as="geometry" />
        </mxCell>
        <mxCell id="Bt5aDinGUWlxkMjQN304-136" value="LAN" style="text;html=1;align=center;verticalAlign=middle;whiteSpace=wrap;rounded=0;" vertex="1" parent="1">
          <mxGeometry x="267" y="-310" width="60" height="30" as="geometry" />
        </mxCell>
        <mxCell id="Bt5aDinGUWlxkMjQN304-138" value="&lt;span style=&quot;white-space-collapse: preserve;&quot;&gt;&lt;b&gt;WAF&lt;/b&gt;&lt;/span&gt;" style="rounded=1;whiteSpace=wrap;html=1;direction=south;rotation=90;" vertex="1" parent="1">
          <mxGeometry x="1507.5" y="217" width="180" height="40" as="geometry" />
        </mxCell>
        <mxCell id="Bt5aDinGUWlxkMjQN304-143" value="WAN" style="text;html=1;align=center;verticalAlign=middle;whiteSpace=wrap;rounded=0;" vertex="1" parent="1">
          <mxGeometry x="267" y="-430" width="60" height="30" as="geometry" />
        </mxCell>
        <mxCell id="Bt5aDinGUWlxkMjQN304-144" value="" style="shape=cylinder3;whiteSpace=wrap;html=1;boundedLbl=1;backgroundOutline=1;size=15;" vertex="1" parent="1">
          <mxGeometry x="840" y="-150" width="60" height="50" as="geometry" />
        </mxCell>
        <mxCell id="Bt5aDinGUWlxkMjQN304-145" value="" style="shape=cylinder3;whiteSpace=wrap;html=1;boundedLbl=1;backgroundOutline=1;size=15;" vertex="1" parent="1">
          <mxGeometry x="833" width="60" height="50" as="geometry" />
        </mxCell>
        <mxCell id="Bt5aDinGUWlxkMjQN304-146" value="" style="shape=cylinder3;whiteSpace=wrap;html=1;boundedLbl=1;backgroundOutline=1;size=15;" vertex="1" parent="1">
          <mxGeometry x="833" y="195" width="60" height="50" as="geometry" />
        </mxCell>
        <mxCell id="Bt5aDinGUWlxkMjQN304-147" value="" style="shape=cylinder3;whiteSpace=wrap;html=1;boundedLbl=1;backgroundOutline=1;size=15;" vertex="1" parent="1">
          <mxGeometry x="843" y="340" width="60" height="50" as="geometry" />
        </mxCell>
        <mxCell id="Bt5aDinGUWlxkMjQN304-148" value="" style="shape=cylinder3;whiteSpace=wrap;html=1;boundedLbl=1;backgroundOutline=1;size=15;" vertex="1" parent="1">
          <mxGeometry x="843" y="560" width="60" height="50" as="geometry" />
        </mxCell>
        <mxCell id="Bt5aDinGUWlxkMjQN304-149" value="" style="shape=cylinder3;whiteSpace=wrap;html=1;boundedLbl=1;backgroundOutline=1;size=15;" vertex="1" parent="1">
          <mxGeometry x="843" y="730" width="60" height="50" as="geometry" />
        </mxCell>
        <mxCell id="Bt5aDinGUWlxkMjQN304-150" value="" style="shape=cylinder3;whiteSpace=wrap;html=1;boundedLbl=1;backgroundOutline=1;size=15;" vertex="1" parent="1">
          <mxGeometry x="843" y="930" width="60" height="50" as="geometry" />
        </mxCell>
        <mxCell id="Bt5aDinGUWlxkMjQN304-151" value="" style="shape=cylinder3;whiteSpace=wrap;html=1;boundedLbl=1;backgroundOutline=1;size=15;" vertex="1" parent="1">
          <mxGeometry x="680" y="132" width="60" height="50" as="geometry" />
        </mxCell>
        <mxCell id="Bt5aDinGUWlxkMjQN304-152" value="&lt;b&gt;Notification&lt;/b&gt;&lt;div&gt;&lt;b&gt;&lt;br&gt;&lt;/b&gt;&lt;div&gt;&lt;span style=&quot;background-color: initial; text-align: left;&quot;&gt;SendNotification&lt;/span&gt;&lt;br&gt;&lt;/div&gt;&lt;/div&gt;&lt;div&gt;&lt;span style=&quot;background-color: initial; text-align: left;&quot;&gt;&lt;br&gt;&lt;/span&gt;&lt;/div&gt;&lt;div&gt;&lt;br&gt;&lt;/div&gt;" style="rounded=1;whiteSpace=wrap;html=1;" vertex="1" parent="1">
          <mxGeometry x="600" y="330" width="120" height="90" as="geometry" />
        </mxCell>
        <mxCell id="Bt5aDinGUWlxkMjQN304-153" value="" style="shape=cylinder3;whiteSpace=wrap;html=1;boundedLbl=1;backgroundOutline=1;size=15;" vertex="1" parent="1">
          <mxGeometry x="579.25" y="390" width="60" height="50" as="geometry" />
        </mxCell>
        <mxCell id="Bt5aDinGUWlxkMjQN304-154" value="" style="endArrow=classic;html=1;rounded=0;exitX=0.018;exitY=0.376;exitDx=0;exitDy=0;exitPerimeter=0;" edge="1" parent="1">
          <mxGeometry width="50" height="50" relative="1" as="geometry">
            <mxPoint x="882.5049999999999" y="473.5700000000003" as="sourcePoint" />
            <mxPoint x="720" y="370" as="targetPoint" />
            <Array as="points">
              <mxPoint x="800" y="474" />
              <mxPoint x="800" y="370" />
            </Array>
          </mxGeometry>
        </mxCell>
        <mxCell id="Bt5aDinGUWlxkMjQN304-156" value="ИВ 12" style="edgeLabel;html=1;align=center;verticalAlign=middle;resizable=0;points=[];" vertex="1" connectable="0" parent="Bt5aDinGUWlxkMjQN304-154">
          <mxGeometry x="0.1212" y="-1" relative="1" as="geometry">
            <mxPoint as="offset" />
          </mxGeometry>
        </mxCell>
        <mxCell id="Bt5aDinGUWlxkMjQN304-157" value="" style="endArrow=classic;html=1;rounded=0;exitX=0.009;exitY=0.545;exitDx=0;exitDy=0;exitPerimeter=0;" edge="1" parent="1" source="Bt5aDinGUWlxkMjQN304-21">
          <mxGeometry width="50" height="50" relative="1" as="geometry">
            <mxPoint x="860" y="170" as="sourcePoint" />
            <mxPoint x="720" y="360" as="targetPoint" />
            <Array as="points">
              <mxPoint x="790" y="164" />
              <mxPoint x="790" y="360" />
            </Array>
          </mxGeometry>
        </mxCell>
        <mxCell id="Bt5aDinGUWlxkMjQN304-158" value="ИВ13" style="edgeLabel;html=1;align=center;verticalAlign=middle;resizable=0;points=[];" vertex="1" connectable="0" parent="Bt5aDinGUWlxkMjQN304-157">
          <mxGeometry x="0.0326" relative="1" as="geometry">
            <mxPoint as="offset" />
          </mxGeometry>
        </mxCell>
        <mxCell id="Bt5aDinGUWlxkMjQN304-159" value="" style="endArrow=classic;html=1;rounded=0;exitX=0.636;exitY=1.007;exitDx=0;exitDy=0;exitPerimeter=0;entryX=0;entryY=0.5;entryDx=0;entryDy=0;" edge="1" parent="1" source="Bt5aDinGUWlxkMjQN304-25" target="Bt5aDinGUWlxkMjQN304-29">
          <mxGeometry width="50" height="50" relative="1" as="geometry">
            <mxPoint x="692.4999999999999" y="136.85900000000026" as="sourcePoint" />
            <mxPoint x="826.4" y="901" as="targetPoint" />
            <Array as="points">
              <mxPoint x="780" y="895" />
            </Array>
          </mxGeometry>
        </mxCell>
        <mxCell id="Bt5aDinGUWlxkMjQN304-162" value="" style="endArrow=classic;html=1;rounded=0;entryX=0.017;entryY=0.349;entryDx=0;entryDy=0;entryPerimeter=0;exitX=0.583;exitY=0.028;exitDx=0;exitDy=0;strokeColor=default;exitPerimeter=0;" edge="1" parent="1" source="Bt5aDinGUWlxkMjQN304-152" target="Bt5aDinGUWlxkMjQN304-26">
          <mxGeometry width="50" height="50" relative="1" as="geometry">
            <mxPoint x="540" y="330" as="sourcePoint" />
            <mxPoint x="761.5499999999998" y="-200.50000000000006" as="targetPoint" />
            <Array as="points">
              <mxPoint x="670" y="-197" />
            </Array>
          </mxGeometry>
        </mxCell>
        <mxCell id="Bt5aDinGUWlxkMjQN304-24" value="&lt;span style=&quot;white-space-collapse: preserve;&quot; data-src-align=&quot;0:14&quot; class=&quot;EzKURWReUAB5oZgtQNkl&quot;&gt;&lt;b&gt;Authentication&lt;/b&gt;&lt;/span&gt;&lt;div&gt;&lt;ul&gt;&lt;li style=&quot;text-align: left;&quot;&gt;&lt;span style=&quot;white-space-collapse: preserve; background-color: initial;&quot;&gt;Authentication&lt;/span&gt;&lt;/li&gt;&lt;li style=&quot;text-align: left;&quot;&gt;&lt;span style=&quot;white-space-collapse: preserve; background-color: initial;&quot; data-src-align=&quot;17:12&quot; class=&quot;EzKURWReUAB5oZgtQNkl&quot;&gt;Security&lt;/span&gt;&lt;span style=&quot;white-space-collapse: preserve; background-color: initial;&quot;&gt;T&lt;/span&gt;&lt;span style=&quot;white-space-collapse: preserve; background-color: initial;&quot; data-src-align=&quot;10:6&quot; class=&quot;EzKURWReUAB5oZgtQNkl&quot;&gt;oken&lt;/span&gt;&lt;span style=&quot;white-space-collapse: preserve; background-color: initial;&quot;&gt;Validation&lt;/span&gt;&lt;/li&gt;&lt;/ul&gt;&lt;/div&gt;" style="rounded=1;whiteSpace=wrap;html=1;direction=south;rotation=90;" vertex="1" parent="1">
          <mxGeometry x="1300" y="207.5" width="192.5" height="70" as="geometry" />
        </mxCell>
      </root>
    </mxGraphModel>
  </diagram>
</mxfile>
